<?xml version="1.0" encoding="UTF-8" standalone="no"?>
<!DOCTYPE svg PUBLIC "-//W3C//DTD SVG 20010904//EN" "http://www.w3.org/TR/2001/REC-SVG-20010904/DTD/svg10.dtd">

<svg xmlns="http://www.w3.org/2000/svg" width="18.7111in" height="10in" viewBox="0 0 1580 950">
  <path id="Seleccion1" fill="orange" stroke="orange" stroke-width="0" d="M 250.75,516.75
           C 253.00,510.00 252.34,512.11 254.07,504.00
             254.07,504.00 257.75,488.00 257.75,488.00
             265.56,454.92 272.63,425.00 291.00,395.75
             297.19,385.90 309.30,372.44 321.00,369.75
             323.72,369.12 331.43,368.22 334.25,368.25
             344.42,368.37 353.72,373.96 362.00,379.50
             362.00,379.50 392.75,404.50 392.75,404.50
             392.75,404.50 405.75,417.50 405.75,417.50
             405.75,417.50 412.25,422.75 412.25,422.75
             412.25,422.75 419.25,427.25 419.25,427.25
             429.77,432.27 430.47,433.99 442.75,434.00
             447.71,434.01 450.96,433.33 455.50,431.00
             464.22,426.54 467.39,416.71 467.50,407.50
             467.57,401.36 467.26,395.72 465.50,389.75
             460.48,372.70 444.04,353.24 430.25,342.25
             416.34,331.16 401.25,321.86 384.75,315.25
             368.71,308.82 357.57,306.55 340.50,304.50
             332.56,303.55 326.08,304.78 318.50,306.50
             292.36,312.42 275.51,331.19 262.50,354.00
             256.93,363.76 251.33,377.48 248.50,388.25
             248.50,388.25 245.25,403.25 245.25,403.25
             245.25,403.25 244.25,411.00 244.25,411.00
             244.25,411.00 242.50,446.75 242.50,446.75
             242.50,477.33 243.00,468.75 247.25,498.50
             247.25,498.50 250.75,516.75 250.75,516.75 Z
           M 564.75,318.00
           C 538.05,325.64 519.25,348.50 515.50,364.75
             513.71,373.20 513.64,372.11 513.75,381.50
             513.82,387.27 513.77,390.76 515.00,396.25
             520.70,421.74 533.26,438.96 558.75,446.50
             568.92,449.51 577.55,451.50 588.00,449.25
             596.68,447.38 602.67,443.85 609.75,438.50
             623.99,427.74 629.50,418.28 634.25,401.50
             635.99,395.36 637.46,389.19 637.25,382.75
             635.99,343.20 601.00,312.75 564.75,318.00 Z
           M 784.75,446.00
           C 782.38,459.00 780.20,458.91 774.00,470.50
             774.00,470.50 769.00,478.00 769.00,478.00
             772.56,477.28 775.54,475.22 778.85,477.09
             782.04,479.06 781.80,481.80 782.16,485.00
             782.16,485.00 782.00,497.00 782.00,497.00
             785.34,491.82 787.30,482.68 788.25,476.25
             789.29,469.18 789.72,468.28 789.75,461.00
             789.80,451.42 789.00,445.00 786.75,434.50
             786.75,434.50 784.75,446.00 784.75,446.00 Z
           M 1213.00,511.00
           C 1219.88,509.86 1223.28,502.61 1228.00,498.02
             1229.99,496.08 1232.84,492.82 1235.94,494.03
             1238.61,495.07 1239.92,498.45 1240.53,501.00
             1242.03,507.16 1242.99,513.67 1243.00,520.00
             1243.00,520.00 1243.00,534.00 1243.00,534.00
             1242.89,541.84 1243.57,544.02 1242.50,550.25
             1242.50,550.25 1240.15,563.00 1240.15,563.00
             1239.92,569.47 1237.44,575.58 1236.41,582.00
             1235.50,587.67 1234.07,593.23 1234.00,599.00
             1233.98,601.07 1233.70,605.66 1234.99,607.26
             1236.34,608.93 1239.05,608.93 1241.00,608.98
             1252.67,609.32 1255.95,603.58 1258.28,593.00
             1258.28,593.00 1260.54,584.00 1260.54,584.00
             1260.54,584.00 1261.83,570.00 1261.83,570.00
             1262.55,562.52 1262.50,559.25 1262.75,552.25
             1262.75,546.50 1263.12,546.65 1263.00,541.25
             1263.00,541.25 1264.42,535.00 1264.42,535.00
             1264.42,535.00 1265.00,525.00 1265.00,525.00
             1265.05,515.89 1266.44,512.25 1272.47,505.01
             1274.10,503.05 1275.93,501.22 1278.00,499.72
             1285.41,494.37 1291.88,498.52 1292.80,507.00
             1293.09,509.70 1292.47,512.36 1292.00,515.00
             1296.83,514.44 1304.59,510.43 1306.71,505.83
             1307.77,503.53 1306.86,499.78 1310.39,496.31
             1313.31,493.45 1326.28,491.52 1329.68,493.88
             1332.46,495.81 1331.41,499.22 1331.17,502.00
             1331.17,502.00 1330.59,510.96 1330.59,510.96
             1329.66,514.77 1329.94,514.37 1329.50,519.50
             1329.50,519.50 1328.50,525.25 1328.50,525.25
             1328.50,525.25 1327.84,533.00 1327.84,533.00
             1327.84,533.00 1326.84,544.00 1326.84,544.00
             1325.25,558.62 1322.20,573.32 1325.29,588.00
             1327.73,599.63 1334.73,609.93 1348.00,608.81
             1361.57,607.67 1385.98,591.80 1379.00,576.00
             1379.00,576.00 1377.00,576.00 1377.00,576.00
             1375.44,579.04 1373.99,581.38 1371.70,583.96
             1369.98,585.89 1363.61,593.04 1361.25,593.50
             1358.15,594.10 1354.29,590.15 1352.53,587.96
             1348.06,582.41 1346.17,570.08 1346.01,563.00
             1346.01,563.00 1349.29,526.00 1349.29,526.00
             1349.29,526.00 1351.25,515.00 1351.25,515.00
             1351.25,515.00 1353.19,498.00 1353.19,498.00
             1352.25,487.50 1357.50,491.50 1367.00,490.91
             1376.43,490.26 1387.33,490.68 1392.00,481.00
             1385.66,479.20 1373.11,480.04 1366.00,480.00
             1359.52,479.97 1355.57,479.84 1356.17,472.00
             1356.62,466.16 1359.00,456.35 1354.99,451.31
             1351.66,447.12 1338.76,448.68 1336.02,453.22
             1334.55,455.67 1335.03,461.99 1335.00,465.00
             1334.96,467.87 1334.41,475.48 1332.98,477.78
             1330.65,481.52 1322.14,482.50 1318.00,483.43
             1316.31,483.82 1313.72,484.65 1312.04,484.26
             1308.74,483.48 1307.32,479.73 1304.68,477.85
             1299.95,474.50 1292.70,476.38 1288.00,478.82
             1281.85,482.02 1275.84,488.52 1271.66,494.00
             1270.33,495.75 1267.46,500.80 1265.12,500.80
             1262.60,500.80 1262.10,496.79 1261.75,495.00
             1260.62,489.17 1258.95,482.29 1253.95,478.51
             1248.30,474.25 1241.66,476.16 1236.00,479.10
             1224.40,485.13 1213.74,497.53 1213.00,511.00 Z
           M 565.00,521.00
           C 565.00,521.00 573.23,506.00 573.23,506.00
             581.89,492.21 594.36,481.09 610.50,477.50
             602.25,470.50 595.67,467.33 587.33,467.00
             580.76,468.84 577.10,471.88 573.75,476.50
             566.87,486.00 564.63,492.85 565.00,504.50
             565.00,504.50 565.00,521.00 565.00,521.00 Z
           M 1113.75,506.50
           C 1113.75,506.50 1103.50,529.00 1103.50,529.00
             1101.34,533.95 1101.25,536.25 1098.75,542.50
             1097.25,552.00 1096.04,560.66 1096.00,569.00
             1095.96,578.18 1096.37,589.69 1100.52,598.00
             1106.57,610.13 1118.54,611.53 1130.00,606.41
             1144.74,599.81 1158.50,582.57 1165.00,568.00
             1172.67,578.72 1168.08,594.50 1178.30,604.70
             1184.22,610.60 1195.61,607.42 1202.50,603.75
             1213.11,598.10 1221.25,577.50 1217.00,576.00
             1212.75,575.00 1211.37,581.38 1205.91,586.26
             1204.15,587.84 1201.65,590.37 1199.05,589.66
             1193.23,588.08 1191.06,574.13 1191.00,569.00
             1191.00,569.00 1191.00,535.00 1191.00,535.00
             1191.02,523.78 1192.95,523.23 1193.77,515.00
             1193.77,515.00 1193.77,502.00 1193.77,502.00
             1194.00,499.88 1194.09,497.00 1193.77,495.00
             1192.56,491.90 1190.20,489.29 1187.96,487.04
             1179.70,478.74 1171.44,475.95 1160.00,476.00
             1146.88,476.06 1136.63,481.35 1127.01,490.05
             1121.90,494.68 1116.75,502.50 1113.75,506.50 Z
           M 1476.00,585.00
           C 1476.00,585.00 1476.00,579.25 1476.00,579.25
             1469.50,584.25 1460.75,588.00 1455.25,590.25
             1450.00,592.25 1449.25,592.50 1443.25,592.75
             1443.25,592.75 1435.25,590.00 1435.25,590.00
             1422.00,588.00 1416.91,578.57 1414.35,568.00
             1412.35,559.76 1412.14,561.96 1411.98,553.01
             1411.94,551.32 1411.53,548.60 1412.86,547.31
             1414.49,545.73 1418.83,546.00 1421.00,546.00
             1421.00,546.00 1433.00,546.00 1433.00,546.00
             1439.42,545.92 1440.13,545.24 1446.00,543.56
             1460.15,539.49 1472.26,533.72 1479.51,520.00
             1487.55,504.78 1486.31,484.55 1468.00,477.94
             1464.03,476.50 1460.19,476.05 1456.00,476.00
             1422.11,475.61 1399.75,505.26 1393.55,536.00
             1392.25,542.47 1391.09,543.89 1391.00,551.00
             1391.00,551.00 1391.00,567.00 1391.00,567.00
             1391.16,579.93 1397.80,596.56 1409.00,603.67
             1419.25,608.75 1424.19,607.41 1434.00,606.75
             1445.25,605.00 1446.75,603.75 1458.25,600.25
             1462.50,597.25 1471.25,591.50 1476.00,585.00 Z
           M 1412.00,532.00
           C 1412.02,524.91 1413.65,517.45 1416.67,511.00
             1419.43,505.09 1421.37,501.85 1426.30,497.43
             1428.86,495.13 1432.80,492.47 1436.00,491.21
             1442.36,488.71 1454.38,488.65 1459.67,493.53
             1466.18,499.54 1466.33,515.62 1462.43,523.00
             1460.07,527.47 1456.57,530.63 1452.00,532.69
             1446.79,535.03 1441.70,534.75 1436.00,534.75
             1426.30,534.75 1420.88,533.81 1412.00,532.00 Z
           M 585.25,573.25
           C 585.25,573.25 590.25,578.50 590.25,578.50
             593.87,583.24 600.87,590.55 602.00,596.00
             616.75,599.25 625.14,592.03 631.61,578.00
             636.01,568.47 640.50,548.00 638.75,530.75
             638.75,530.75 634.50,523.50 634.50,523.50
             634.50,523.50 630.75,515.75 630.75,515.75
             630.75,515.75 624.25,499.75 624.25,499.75
             624.25,499.75 622.25,490.50 622.25,490.50
             609.75,486.50 594.05,490.49 586.58,508.00
             579.35,524.95 579.50,550.50 580.25,569.00
             580.25,569.00 585.25,573.25 585.25,573.25 Z
           M 1148.00,490.30
           C 1158.80,489.21 1165.45,492.11 1172.96,500.00
             1174.83,501.98 1176.96,504.23 1177.48,507.00
             1178.10,510.34 1176.16,513.06 1175.04,516.00
             1175.04,516.00 1171.34,529.00 1171.34,529.00
             1171.34,529.00 1167.29,554.00 1167.29,554.00
             1163.90,566.01 1145.97,586.83 1133.00,588.70
             1119.89,590.58 1118.07,578.98 1116.95,569.00
             1116.95,569.00 1116.01,560.00 1116.01,560.00
             1115.86,553.70 1116.47,552.58 1116.92,547.00
             1118.61,525.87 1123.10,495.55 1148.00,490.30 Z
           M 759.00,490.00
           C 757.24,496.84 752.57,502.58 748.20,508.00
             743.65,513.64 728.94,530.34 724.00,534.72
             719.67,538.55 714.96,544.70 709.00,545.00
             709.00,545.00 709.00,576.00 709.00,576.00
             709.04,579.34 709.31,582.79 710.33,586.00
             716.15,604.29 738.22,589.21 745.08,580.00
             756.08,565.21 757.20,555.36 759.28,538.00
             759.28,538.00 760.92,524.00 760.92,524.00
             760.92,524.00 760.00,511.00 760.00,511.00
             759.99,505.70 760.77,494.46 759.00,490.00 Z
           M 656.75,557.75
           C 655.97,562.55 655.53,561.60 653.92,566.00
             646.53,586.18 636.75,601.09 615.75,606.75
             615.75,606.75 640.25,624.25 640.25,624.25
             654.83,630.63 672.14,628.47 686.75,622.50
             686.75,622.50 707.75,610.00 707.75,610.00
             701.00,610.00 701.69,611.28 696.04,607.91
             687.40,602.77 687.55,592.77 686.91,584.00
             686.91,584.00 686.75,575.25 686.75,575.25
             686.75,575.25 687.75,563.25 687.75,563.25
             679.09,568.13 680.75,570.00 664.00,564.00
             664.00,564.00 656.75,557.75 656.75,557.75 Z
           M 317.50,664.00
           C 317.50,664.00 294.75,695.50 294.75,695.50
             294.75,695.50 257.00,744.25 257.00,744.25
             257.00,744.25 155.00,873.50 155.00,873.50
             155.00,873.50 111.25,924.75 111.25,924.75
             106.03,930.97 95.00,944.25 91.00,950.25
             98.75,946.25 104.02,941.49 111.25,936.25
             111.25,936.25 132.00,921.25 132.00,921.25
             132.00,921.25 166.25,895.00 166.25,895.00
             166.25,895.00 250.25,834.25 250.25,834.25
             281.96,811.30 321.79,783.18 350.00,757.00
             350.00,757.00 368.25,739.25 368.25,739.25
             368.25,739.25 386.25,723.00 386.25,723.00
             388.27,721.16 394.95,715.46 397.75,715.25
             400.85,715.02 407.50,719.92 410.25,721.50
             418.66,726.33 438.60,739.58 434.75,751.50
             429.81,766.78 407.70,782.57 394.50,790.75
             394.50,790.75 323.75,836.25 323.75,836.25
             323.75,836.25 307.75,846.50 307.75,846.50
             307.75,846.50 283.00,861.67 283.00,861.67
             277.00,866.42 276.33,866.00 271.75,868.50
             285.25,869.50 306.29,864.45 320.00,862.00
             320.00,862.00 346.50,856.50 346.50,856.50
             346.50,856.50 388.25,841.75 388.25,841.75
             414.58,833.27 447.29,820.85 468.50,803.00
             485.45,788.74 506.00,767.75 508.25,744.25
             508.76,721.87 494.68,705.58 481.25,689.50
             461.25,665.55 453.99,658.70 431.00,638.50
             431.00,638.50 415.00,624.75 415.00,624.75
             398.96,611.31 382.18,596.92 364.50,585.75
             364.25,588.84 363.83,600.85 362.69,602.72
             359.38,608.12 348.35,606.36 344.24,597.00
             341.82,590.57 343.12,584.02 344.25,577.25
             339.75,576.50 336.28,574.88 330.25,573.00
             325.22,571.44 315.21,569.79 310.00,570.00
             306.43,570.14 305.18,570.23 301.75,571.25
             289.31,574.96 283.64,582.90 280.75,594.75
             279.33,600.57 279.30,603.10 279.75,609.25
             280.25,616.06 284.37,627.39 287.50,633.50
             291.82,641.94 309.93,657.40 317.50,664.00 Z" />
  <path id="Seleccion2" fill="black" stroke="black" stroke-width="3" d="M 1255.00,342.00
           C 1255.00,342.00 1265.83,345.02 1265.83,345.02
             1265.83,345.02 1272.68,353.67 1272.68,353.67
             1272.68,353.67 1279.74,359.38 1279.74,359.38
             1279.74,359.38 1286.05,366.83 1286.05,366.83
             1286.05,366.83 1302.00,381.00 1302.00,381.00
             1291.21,385.01 1293.99,380.07 1281.00,380.19
             1281.00,380.19 1259.00,380.19 1259.00,380.19
             1249.45,381.05 1250.34,372.64 1243.90,367.57
             1239.69,364.26 1234.04,364.94 1229.00,365.00
             1221.65,365.10 1207.11,369.04 1201.00,373.22
             1194.50,377.67 1188.25,385.19 1181.00,387.91
             1175.04,390.15 1173.03,385.85 1168.96,383.51
             1166.15,381.89 1163.16,381.86 1160.00,382.04
             1149.75,382.64 1149.68,389.71 1143.91,396.00
             1138.82,401.55 1131.23,406.22 1128.00,413.00
             1135.09,413.91 1140.53,407.25 1147.00,404.47
             1152.57,402.07 1154.79,403.64 1160.00,402.47
             1163.92,401.59 1167.94,398.93 1171.96,401.03
             1181.46,405.99 1169.95,411.64 1170.32,420.00
             1170.55,425.07 1169.86,433.36 1167.56,437.96
             1167.56,437.96 1148.78,462.00 1148.78,462.00
             1145.65,466.63 1142.38,476.54 1136.04,477.75
             1132.55,478.42 1129.97,473.31 1126.00,470.00
             1123.99,473.33 1121.78,480.51 1119.70,482.07
             1118.51,482.96 1116.43,483.56 1115.00,484.17
             1104.96,487.28 1106.98,485.66 1098.00,484.17
             1092.28,483.48 1090.01,485.90 1087.05,485.20
             1083.92,484.45 1083.44,481.55 1079.87,479.85
             1075.34,477.69 1068.00,477.95 1063.00,478.00
             1063.00,478.00 1053.00,478.91 1053.00,478.91
             1053.00,478.91 1026.00,480.00 1026.00,480.00
             1026.00,480.00 1014.00,480.82 1014.00,480.82
             1014.00,480.82 1005.00,479.97 1005.00,479.97
             1002.12,479.75 997.58,478.28 995.15,479.42
             989.92,481.85 991.65,491.25 1001.00,494.03
             1012.58,497.54 1033.09,494.15 1046.00,494.03
             1046.00,494.03 1069.00,491.00 1069.00,491.00
             1068.76,492.53 1068.79,493.35 1068.07,494.83
             1066.42,498.23 1050.72,513.29 1047.00,517.00
             1047.00,517.00 1002.65,561.84 1002.65,561.84
             996.27,569.24 987.04,581.20 985.33,591.00
             984.43,596.09 984.28,604.86 990.05,607.11
             992.97,608.24 1002.66,606.05 1007.00,606.00
             1007.00,606.00 1026.00,604.99 1026.00,604.99
             1026.00,604.99 1061.00,604.99 1061.00,604.99
             1064.91,605.05 1076.68,607.21 1079.39,604.99
             1082.43,602.47 1078.88,596.30 1076.78,594.27
             1070.70,588.41 1059.88,587.99 1052.00,588.00
             1036.57,588.02 1021.16,591.67 1006.00,594.00
             1006.98,585.34 1014.91,577.56 1020.44,571.00
             1020.44,571.00 1071.00,520.00 1071.00,520.00
             1077.77,527.87 1074.59,528.27 1077.81,537.00
             1077.81,537.00 1088.97,562.00 1088.97,562.00
             1090.57,566.54 1090.21,569.47 1086.00,572.00
             1088.06,580.66 1087.87,576.21 1087.19,585.00
             1086.40,595.28 1095.76,603.79 1085.00,613.00
             1088.50,619.88 1091.29,617.21 1095.37,621.42
             1097.63,623.75 1099.64,629.12 1104.00,630.04
             1107.85,630.85 1109.91,626.88 1113.96,628.46
             1117.25,629.74 1121.41,636.10 1124.17,638.83
             1124.17,638.83 1136.98,648.30 1136.98,648.30
             1139.10,650.18 1141.86,652.70 1140.92,655.83
             1140.18,658.30 1133.32,663.55 1139.15,666.97
             1144.19,669.94 1148.34,664.12 1153.00,665.11
             1156.64,665.89 1161.07,671.31 1164.00,673.79
             1170.41,679.22 1174.36,678.11 1177.26,682.14
             1179.24,684.89 1178.71,687.86 1179.59,689.78
             1180.87,692.54 1183.50,692.73 1185.83,694.56
             1189.83,697.69 1193.03,704.87 1200.00,706.57
             1202.23,707.11 1205.64,707.00 1206.87,704.69
             1209.16,700.42 1201.81,694.50 1199.39,689.00
             1199.39,689.00 1197.20,683.43 1197.20,683.43
             1193.32,676.81 1184.98,672.06 1178.00,669.46
             1174.44,668.14 1170.88,668.17 1168.28,666.57
             1168.28,666.57 1150.00,649.00 1150.00,649.00
             1158.12,647.60 1170.33,654.56 1175.00,661.00
             1175.00,661.00 1183.17,655.28 1183.17,655.28
             1185.64,654.64 1189.40,657.33 1192.00,658.24
             1202.07,661.76 1204.08,657.86 1215.00,665.72
             1220.84,669.93 1223.01,674.51 1228.01,677.24
             1228.01,677.24 1242.00,681.79 1242.00,681.79
             1245.51,682.32 1249.59,681.53 1252.96,682.89
             1257.58,684.76 1258.13,689.02 1262.04,690.96
             1268.83,694.34 1277.17,683.34 1282.86,686.11
             1285.42,687.36 1286.25,691.37 1288.00,694.00
             1293.69,687.54 1294.93,690.07 1302.00,688.47
             1307.68,687.19 1307.70,685.71 1315.00,686.04
             1318.21,686.18 1329.79,689.40 1326.26,694.49
             1324.66,696.80 1318.67,697.21 1316.00,697.58
             1305.14,699.04 1292.10,692.89 1282.00,697.00
             1284.38,703.34 1287.13,702.57 1293.00,703.17
             1293.00,703.17 1300.00,703.96 1300.00,703.96
             1300.00,703.96 1316.00,702.77 1316.00,702.77
             1316.00,702.77 1341.00,702.77 1341.00,702.77
             1341.00,702.77 1354.00,699.55 1354.00,699.55
             1354.00,699.55 1371.94,695.58 1371.94,695.58
             1373.66,695.03 1376.00,693.63 1374.83,691.47
             1373.62,689.24 1369.21,689.03 1367.00,689.03
             1367.00,689.03 1350.00,691.83 1350.00,691.83
             1348.00,692.02 1344.24,692.22 1342.88,690.41
             1338.68,684.79 1353.31,681.93 1356.00,681.10
             1365.49,678.20 1381.70,676.51 1392.00,675.28
             1397.49,674.63 1399.26,675.63 1405.00,674.00
             1402.74,669.32 1396.40,662.86 1391.00,662.15
             1391.00,662.15 1380.00,662.75 1380.00,662.75
             1375.24,662.22 1373.37,659.08 1369.00,659.93
             1365.71,660.56 1366.40,661.90 1359.00,662.00
             1349.98,662.12 1347.32,661.81 1339.00,657.97
             1336.81,656.96 1333.15,655.23 1332.25,652.83
             1330.04,646.99 1346.21,643.88 1350.00,644.11
             1356.24,644.47 1362.14,649.32 1369.00,648.66
             1379.23,647.68 1382.72,641.82 1390.00,636.91
             1395.14,633.45 1397.44,633.70 1401.00,631.90
             1401.00,631.90 1421.25,617.62 1421.25,617.62
             1423.39,615.36 1424.80,612.83 1426.00,610.00
             1416.15,606.72 1410.86,606.20 1403.17,597.96
             1395.97,590.25 1391.13,576.50 1391.00,566.00
             1391.00,566.00 1391.00,553.00 1391.00,553.00
             1391.01,543.82 1391.74,545.08 1393.49,537.00
             1393.49,537.00 1394.78,530.00 1394.78,530.00
             1400.85,508.35 1416.57,487.21 1438.00,479.22
             1444.29,476.88 1445.00,476.09 1452.00,476.00
             1452.00,476.00 1456.00,476.00 1456.00,476.00
             1459.91,476.05 1463.30,476.36 1467.00,477.76
             1487.59,485.59 1488.56,509.56 1475.74,525.00
             1464.75,538.25 1447.14,545.97 1430.00,546.00
             1430.00,546.00 1412.00,546.00 1412.00,546.00
             1412.00,546.00 1412.00,555.00 1412.00,555.00
             1412.17,569.27 1418.64,588.35 1435.00,590.43
             1443.37,591.49 1441.99,582.59 1445.15,578.08
             1447.81,574.26 1450.49,575.02 1452.30,579.02
             1452.30,579.02 1453.40,583.00 1453.40,583.00
             1453.40,583.00 1455.00,589.00 1455.00,589.00
             1466.80,586.77 1465.59,584.90 1475.00,581.00
             1472.51,576.13 1468.93,574.62 1469.08,571.00
             1469.46,561.86 1480.78,566.33 1482.83,572.01
             1484.63,576.99 1478.73,576.24 1475.84,585.00
             1472.64,594.75 1478.63,597.14 1476.69,605.00
             1474.55,613.64 1463.69,614.26 1468.00,626.00
             1470.84,624.98 1479.58,620.39 1481.77,620.87
             1484.85,621.54 1484.54,625.54 1486.01,627.42
             1487.53,629.38 1490.43,629.32 1491.30,632.14
             1492.18,635.03 1489.57,638.26 1488.69,641.00
             1487.05,646.15 1489.51,650.63 1482.70,656.37
             1479.56,659.01 1475.36,660.10 1473.37,661.36
             1470.91,662.92 1469.59,665.60 1466.96,666.98
             1464.37,668.33 1459.94,668.00 1457.00,668.00
             1445.40,668.02 1445.14,670.94 1436.00,677.03
             1436.00,677.03 1425.09,683.61 1425.09,683.61
             1421.72,686.27 1421.22,688.06 1416.99,690.65
             1414.47,692.19 1408.82,694.95 1406.00,695.63
             1401.07,696.81 1395.62,696.42 1391.04,698.84
             1388.02,700.44 1380.35,709.89 1378.00,713.00
             1385.92,714.90 1387.71,712.90 1395.00,710.92
             1416.73,705.00 1426.32,692.75 1445.00,683.73
             1445.00,683.73 1457.00,680.09 1457.00,680.09
             1457.00,680.09 1471.00,672.09 1471.00,672.09
             1471.00,672.09 1483.95,667.15 1483.95,667.15
             1489.86,663.26 1489.54,654.14 1494.20,652.17
             1496.91,651.02 1501.76,653.76 1497.51,662.00
             1490.55,675.48 1478.53,680.92 1475.00,692.00
             1475.00,692.00 1488.00,681.66 1488.00,681.66
             1488.00,681.66 1502.87,673.84 1502.87,673.84
             1502.87,673.84 1512.00,666.00 1512.00,666.00
             1511.28,671.24 1510.07,672.78 1507.00,677.00
             1508.29,679.25 1511.64,684.00 1512.18,686.00
             1513.37,690.31 1509.43,698.62 1505.89,701.11
             1503.57,702.75 1500.71,703.22 1498.01,703.90
             1496.76,704.22 1494.70,704.91 1493.44,704.72
             1490.46,704.29 1489.20,700.93 1485.91,700.92
             1485.91,700.92 1473.00,704.00 1473.00,704.00
             1473.09,707.81 1473.36,713.32 1476.48,716.00
             1478.81,718.00 1486.66,719.55 1485.83,725.00
             1485.22,729.05 1474.65,739.07 1471.35,742.35
             1462.67,750.99 1458.79,751.34 1450.09,758.15
             1445.76,761.54 1440.13,767.29 1435.00,769.12
             1435.00,769.12 1407.00,773.84 1407.00,773.84
             1396.47,777.35 1391.48,785.01 1386.00,786.24
             1376.47,788.37 1375.31,776.02 1371.59,772.43
             1368.53,769.50 1358.79,769.04 1355.22,771.17
             1353.43,772.24 1353.01,773.34 1352.00,775.00
             1352.00,775.00 1359.86,777.43 1359.86,777.43
             1361.89,778.53 1367.41,785.53 1366.66,787.81
             1365.96,789.97 1361.95,791.30 1360.00,792.13
             1349.95,796.41 1338.77,797.00 1328.00,797.00
             1327.91,793.65 1328.04,790.17 1324.77,788.17
             1322.11,786.55 1315.27,787.00 1312.00,787.00
             1312.00,787.00 1283.00,787.00 1283.00,787.00
             1277.13,787.03 1274.52,786.48 1274.00,793.00
             1283.30,794.76 1290.56,797.96 1299.00,802.00
             1293.92,808.85 1291.84,807.99 1284.00,808.00
             1271.93,808.02 1275.42,810.25 1268.00,811.55
             1264.93,812.25 1251.96,812.23 1249.04,811.55
             1246.56,810.78 1245.73,809.90 1243.72,809.04
             1240.01,807.46 1236.59,808.30 1234.50,803.94
             1231.91,798.58 1236.98,797.79 1239.00,791.00
             1235.46,791.03 1224.01,791.65 1221.59,793.85
             1220.40,794.94 1220.46,795.66 1220.00,797.00
             1221.72,797.99 1223.69,798.89 1224.41,800.94
             1225.13,802.98 1223.47,809.70 1217.00,808.83
             1208.56,807.69 1197.91,803.69 1190.00,800.42
             1183.16,797.59 1181.85,795.25 1174.00,795.00
             1174.32,799.95 1176.39,804.64 1171.74,808.39
             1170.27,809.57 1168.87,810.06 1167.00,809.64
             1163.64,808.88 1160.57,804.63 1157.00,804.74
             1152.33,804.88 1150.04,811.67 1142.22,806.74
             1137.73,803.90 1141.90,803.17 1128.00,796.43
             1126.19,795.55 1123.37,793.99 1121.31,794.70
             1116.74,796.29 1121.89,802.61 1123.00,805.00
             1111.33,804.97 1107.88,803.56 1099.92,795.00
             1098.00,792.94 1095.42,790.50 1094.17,788.00
             1092.29,784.23 1093.70,781.22 1092.01,778.51
             1092.01,778.51 1086.22,772.91 1086.22,772.91
             1083.35,769.71 1083.10,767.45 1081.31,765.21
             1076.70,759.48 1067.32,760.26 1064.56,753.96
             1062.54,749.35 1067.40,746.29 1068.17,742.83
             1068.79,740.08 1067.07,737.75 1066.41,735.00
             1064.94,728.89 1066.44,718.33 1057.99,717.15
             1049.02,715.90 1048.97,722.42 1049.00,729.00
             1049.07,742.87 1057.33,749.32 1061.45,761.00
             1061.45,761.00 1063.45,769.00 1063.45,769.00
             1064.16,772.56 1066.99,780.23 1063.45,783.03
             1059.89,786.04 1054.02,781.34 1051.00,779.28
             1051.00,779.28 1040.21,773.28 1040.21,773.28
             1036.49,770.50 1034.77,764.44 1024.00,767.00
             1024.00,767.00 1030.47,775.00 1030.47,775.00
             1030.47,775.00 1035.54,782.70 1035.54,782.70
             1038.37,786.40 1046.47,793.64 1051.00,794.48
             1054.81,795.20 1061.40,792.43 1065.00,791.00
             1065.36,792.70 1066.36,799.51 1067.05,800.40
             1068.36,802.12 1071.01,801.86 1073.00,802.51
             1075.94,803.45 1078.45,805.49 1080.34,808.04
             1083.47,812.88 1080.65,814.43 1080.34,818.00
             1080.39,820.57 1082.63,825.48 1083.98,827.71
             1088.32,834.85 1092.08,834.59 1099.00,836.40
             1102.92,837.42 1104.46,839.22 1109.00,839.81
             1115.76,840.70 1119.12,838.52 1124.00,838.21
             1124.00,838.21 1135.00,839.00 1135.00,839.00
             1135.00,839.00 1154.00,838.00 1154.00,838.00
             1154.00,838.00 1168.00,838.00 1168.00,838.00
             1168.00,838.00 1203.00,842.92 1203.00,842.92
             1203.00,842.92 1223.00,842.92 1223.00,842.92
             1223.00,842.92 1234.00,841.18 1234.00,841.18
             1234.00,841.18 1252.00,843.00 1252.00,843.00
             1252.00,843.00 1270.00,842.00 1270.00,842.00
             1281.89,841.94 1288.02,839.12 1299.00,836.52
             1305.63,834.96 1309.30,834.51 1316.00,831.89
             1316.00,831.89 1329.00,825.36 1329.00,825.36
             1329.00,825.36 1347.00,818.97 1347.00,818.97
             1347.00,818.97 1365.00,809.07 1365.00,809.07
             1367.15,808.17 1375.71,806.23 1378.00,806.40
             1381.61,806.32 1383.79,807.54 1388.00,806.40
             1388.00,806.40 1412.00,795.90 1412.00,795.90
             1412.00,795.90 1430.00,792.65 1430.00,792.65
             1441.75,788.06 1457.88,777.83 1467.91,770.09
             1467.91,770.09 1478.00,761.78 1478.00,761.78
             1478.00,761.78 1491.00,754.39 1491.00,754.39
             1497.37,749.67 1513.01,734.95 1516.48,728.00
             1519.28,722.40 1520.19,716.13 1521.00,710.00
             1518.53,710.11 1511.37,711.78 1511.32,707.85
             1511.26,703.21 1520.81,697.94 1525.48,692.00
             1533.45,681.88 1540.04,662.59 1536.00,650.00
             1534.61,651.53 1532.76,653.90 1530.99,654.88
             1525.60,657.84 1517.36,648.53 1518.89,642.00
             1519.89,637.78 1522.84,635.32 1527.00,637.76
             1528.30,638.52 1529.77,639.92 1530.79,641.04
             1532.45,642.86 1533.70,644.93 1535.00,647.00
             1537.09,645.98 1537.90,645.76 1539.51,643.86
             1543.49,639.17 1547.64,625.15 1546.79,619.00
             1545.93,612.72 1542.22,603.42 1544.56,597.09
             1546.40,592.12 1556.49,593.37 1559.57,596.43
             1561.79,598.64 1564.64,609.37 1566.18,613.00
             1572.39,609.39 1569.10,603.21 1566.18,598.00
             1564.74,594.92 1560.95,588.66 1558.33,586.57
             1556.72,585.28 1541.73,583.75 1549.43,575.54
             1550.49,574.42 1551.73,573.79 1553.00,573.00
             1551.60,569.00 1548.01,562.28 1547.65,559.00
             1547.21,555.01 1549.30,550.03 1546.32,544.00
             1546.32,544.00 1528.83,520.00 1528.83,520.00
             1526.81,514.31 1533.45,512.23 1531.62,503.00
             1529.94,494.54 1523.52,489.56 1519.23,482.96
             1515.85,477.75 1512.54,469.54 1508.53,465.18
             1504.53,460.83 1483.94,447.75 1478.00,444.61
             1478.00,444.61 1467.00,439.01 1467.00,439.01
             1457.39,432.46 1456.18,427.23 1450.21,419.00
             1445.80,412.91 1440.14,410.57 1438.91,405.99
             1438.25,403.56 1439.49,399.54 1440.00,397.00
             1440.00,397.00 1428.00,392.02 1428.00,392.02
             1428.00,392.02 1417.00,385.45 1417.00,385.45
             1417.00,385.45 1393.00,373.10 1393.00,373.10
             1381.58,366.03 1379.99,360.36 1375.00,358.60
             1370.85,357.14 1364.95,360.44 1361.00,362.00
             1361.00,362.00 1365.00,370.00 1365.00,370.00
             1365.00,370.00 1356.00,367.00 1356.00,367.00
             1358.57,362.29 1362.17,359.49 1356.00,356.00
             1354.51,358.54 1352.72,361.56 1349.22,359.77
             1345.22,357.71 1347.26,353.04 1342.85,350.09
             1338.83,347.39 1321.73,347.26 1317.00,348.64
             1314.55,349.35 1311.58,350.86 1310.35,353.21
             1306.57,360.47 1316.96,366.96 1316.00,376.00
             1306.81,370.37 1307.47,365.55 1301.82,360.22
             1297.90,356.54 1295.23,357.47 1290.29,352.70
             1284.52,347.13 1283.15,342.40 1274.00,340.13
             1266.45,338.26 1259.69,334.28 1255.00,342.00 Z
           M 910.33,580.33
           C 908.07,584.58 902.12,588.70 898.33,591.67
             896.74,592.91 894.70,594.26 892.67,593.00
             890.74,591.81 887.99,588.01 887.67,586.00
             886.74,580.16 886.36,574.33 886.33,568.33
             886.33,568.33 886.33,549.00 886.33,549.00
             886.33,549.00 886.67,536.67 886.67,536.67
             886.67,536.67 888.67,511.67 888.67,511.67
             888.77,503.01 889.80,495.96 891.00,487.67
             891.00,487.67 898.00,429.67 898.00,429.67
             898.07,423.78 898.81,411.94 894.67,407.67
             892.82,405.76 890.85,404.48 888.33,404.33
             881.50,403.94 877.21,408.81 878.00,417.33
             878.00,417.33 878.67,456.00 878.67,456.00
             878.67,456.00 877.00,485.00 877.00,485.00
             877.00,485.00 874.33,505.67 874.33,505.67
             874.33,505.67 874.00,516.00 874.00,516.00
             874.00,516.00 871.67,534.33 871.67,534.33
             871.67,534.33 869.33,552.33 869.33,552.33
             869.33,552.33 867.33,581.33 867.33,581.33
             867.37,584.83 868.29,591.82 869.33,595.00
             870.01,597.08 871.12,599.27 872.33,601.00
             882.70,615.77 898.87,601.05 906.00,591.00
             909.02,586.73 917.64,582.90 910.33,580.33 Z
           M 948.00,420.33
           C 936.00,428.33 942.33,438.67 944.67,441.67
             951.33,446.00 953.67,445.33 959.33,444.33
             968.00,439.67 970.65,426.44 960.67,420.67
             956.46,418.23 952.67,419.65 948.00,420.33 Z
           M 817.33,425.00
           C 812.67,436.33 821.67,445.33 829.00,445.33
             840.67,444.67 846.33,428.33 837.67,422.67
             833.33,417.67 823.33,416.67 817.33,425.00 Z
           M 441.67,553.00
           C 441.67,553.00 435.67,511.00 435.67,511.00
             435.67,511.00 433.67,497.33 433.67,497.33
             433.67,497.33 425.79,460.00 425.79,460.00
             423.22,451.39 418.72,437.33 413.89,430.00
             411.39,426.20 408.78,423.65 404.00,423.00
             398.47,422.25 395.02,425.01 391.67,429.00
             386.07,435.68 378.32,452.50 375.00,460.67
             366.50,481.59 362.35,497.50 356.67,519.33
             356.67,519.33 354.00,529.67 354.00,529.67
             354.00,529.67 349.00,555.67 349.00,555.67
             349.43,556.27 347.00,566.00 346.33,571.00
             345.33,578.01 344.37,579.79 344.33,587.00
             344.29,596.97 341.66,603.14 354.67,604.00
             357.05,604.16 360.00,603.42 362.33,603.00
             362.33,603.00 363.67,592.00 363.67,592.00
             363.67,592.00 364.00,579.00 364.00,579.00
             364.00,579.00 365.00,568.33 365.00,568.33
             365.00,568.33 368.67,548.67 368.67,548.67
             368.67,548.67 370.00,541.00 370.00,541.00
             370.00,541.00 371.67,531.67 371.67,531.67
             371.67,531.67 372.33,524.67 372.33,524.67
             372.33,524.67 374.67,515.67 374.67,515.67
             374.67,515.67 380.00,490.00 380.00,490.00
             380.00,490.00 387.00,463.00 387.00,463.00
             387.00,463.00 396.00,445.00 396.00,445.00
             397.85,445.67 400.26,443.73 401.67,445.33
             404.69,448.78 410.84,463.94 412.67,469.33
             418.93,487.82 422.25,510.86 425.67,530.00
             425.67,530.00 431.33,575.33 431.33,575.33
             431.33,575.33 432.33,596.00 432.33,596.00
             432.44,598.91 434.03,603.99 435.67,606.33
             437.42,608.84 438.59,607.10 441.33,607.00
             452.32,606.61 452.09,592.75 454.33,584.00
             454.33,584.00 455.33,576.00 455.33,576.00
             455.33,576.00 463.33,540.00 463.33,540.00
             463.33,540.00 478.33,487.33 478.33,487.33
             478.33,487.33 488.33,458.67 488.33,458.67
             491.08,451.58 494.00,444.33 498.67,441.67
             503.18,444.65 506.87,453.74 508.33,463.00
             511.03,472.39 514.62,482.67 515.33,499.67
             515.33,499.67 516.67,512.33 516.67,512.33
             517.97,522.91 518.53,523.41 518.67,535.00
             518.67,535.00 520.00,549.67 520.00,549.67
             520.00,549.67 521.33,583.00 521.33,583.00
             521.68,588.13 521.54,597.29 523.67,602.00
             527.64,610.81 537.15,608.12 539.00,604.00
             540.03,601.70 539.34,583.90 539.33,580.00
             539.33,580.00 538.33,563.33 538.33,563.33
             538.33,563.33 537.33,551.00 537.33,551.00
             537.33,551.00 535.67,530.67 535.67,530.67
             535.67,530.67 534.00,514.67 534.00,514.67
             534.00,514.67 533.33,506.00 533.33,506.00
             533.33,506.00 530.67,493.67 530.67,493.67
             530.67,493.67 529.00,483.00 529.00,483.00
             529.00,483.00 524.00,459.67 524.00,459.67
             521.64,450.33 517.79,438.29 512.33,430.33
             509.90,426.78 509.15,423.39 504.67,422.67
             493.05,420.78 484.33,438.60 480.33,447.00
             468.76,471.32 462.02,500.93 453.67,526.33
             453.67,526.33 446.33,551.33 446.33,551.33
             445.13,553.32 443.54,552.00 441.67,553.00 Z
           M 1356.00,479.00
           C 1356.00,479.00 1367.00,480.00 1367.00,480.00
             1367.00,480.00 1392.00,481.00 1392.00,481.00
             1388.08,490.39 1376.93,490.57 1368.00,490.96
             1362.05,491.22 1356.34,490.12 1353.58,497.00
             1351.94,501.12 1352.24,510.14 1351.39,515.00
             1351.39,515.00 1349.29,527.00 1349.29,527.00
             1349.29,527.00 1346.03,562.00 1346.03,562.00
             1346.03,562.00 1347.13,572.00 1347.13,572.00
             1348.01,578.15 1351.55,593.23 1360.00,592.50
             1366.22,591.96 1374.90,580.04 1378.00,575.00
             1382.57,579.97 1380.67,585.67 1377.37,590.91
             1371.89,599.63 1358.31,608.19 1348.00,608.90
             1334.98,609.81 1328.13,600.54 1325.31,589.00
             1323.01,579.41 1324.00,562.91 1325.31,553.00
             1326.25,545.62 1328.70,535.26 1327.00,528.00
             1313.34,534.35 1309.46,532.26 1296.00,526.46
             1293.23,525.27 1287.58,524.39 1287.05,520.90
             1286.56,517.70 1290.33,515.59 1291.83,512.83
             1294.40,508.07 1291.67,498.74 1285.96,497.47
             1282.29,496.66 1278.83,499.16 1276.18,501.38
             1270.28,506.33 1265.15,514.17 1265.00,522.00
             1264.95,525.04 1264.45,535.59 1265.88,537.69
             1267.69,540.32 1271.24,539.84 1274.00,540.18
             1276.66,540.51 1279.29,541.61 1282.00,541.19
             1285.38,540.65 1289.75,537.64 1293.00,536.38
             1295.65,535.34 1307.84,532.95 1306.26,538.95
             1305.43,542.08 1298.88,544.82 1296.00,545.63
             1296.00,545.63 1277.00,549.58 1277.00,549.58
             1273.05,550.19 1268.40,550.35 1265.43,553.42
             1262.07,556.89 1262.24,566.29 1261.91,571.00
             1261.30,579.70 1259.31,596.97 1254.09,603.83
             1252.73,605.61 1251.06,607.15 1248.98,608.07
             1246.34,609.24 1236.98,609.87 1235.02,607.40
             1233.66,605.69 1233.98,600.25 1234.00,598.00
             1234.00,598.00 1240.16,561.00 1240.16,561.00
             1240.16,561.00 1240.16,547.00 1240.16,547.00
             1241.34,541.15 1242.89,541.89 1243.00,534.00
             1243.00,534.00 1243.00,521.00 1243.00,521.00
             1242.99,514.82 1241.84,505.93 1240.14,500.00
             1239.43,497.51 1237.98,494.17 1234.98,493.88
             1232.45,493.62 1229.68,496.43 1228.01,498.04
             1222.50,503.37 1220.82,508.25 1214.00,512.00
             1210.60,499.59 1226.00,484.11 1236.00,478.80
             1240.61,476.34 1247.03,474.65 1252.00,477.17
             1260.07,481.28 1261.93,493.92 1263.00,502.00
             1268.70,500.23 1269.45,496.51 1273.09,492.00
             1279.31,484.31 1288.24,475.29 1299.00,476.10
             1307.53,476.73 1307.03,482.17 1311.10,483.93
             1313.66,485.04 1328.24,481.29 1330.85,479.70
             1335.59,476.83 1334.91,463.21 1335.00,458.00
             1335.04,456.25 1334.97,454.00 1336.02,452.51
             1338.95,448.34 1351.76,447.07 1355.00,451.28
             1360.04,457.83 1356.02,470.79 1356.00,479.00 Z
           M 917.67,508.67
           C 922.92,501.51 931.13,491.86 940.00,489.33
             940.17,488.63 943.68,495.67 941.00,507.00
             940.98,517.02 939.53,517.95 938.33,526.33
             938.33,526.33 937.67,535.67 937.67,535.67
             937.67,535.67 936.67,545.00 936.67,545.00
             936.67,545.00 934.33,557.00 934.33,557.00
             934.33,557.00 933.67,567.00 933.67,567.00
             932.40,576.65 932.29,581.72 932.33,591.33
             932.35,594.21 933.45,594.86 934.33,597.67
             940.98,618.83 960.69,601.52 970.00,591.67
             973.21,588.27 976.67,585.00 979.65,578.16
             975.00,580.67 975.00,579.48 973.00,581.33
             970.00,584.12 962.54,592.14 958.00,591.00
             954.91,590.22 952.38,587.16 952.33,584.67
             952.33,584.67 952.67,570.67 952.67,570.67
             952.74,564.48 954.46,558.39 955.33,552.33
             955.33,552.33 955.67,544.67 955.67,544.67
             955.67,544.67 957.33,534.00 957.33,534.00
             957.33,534.00 959.00,521.00 959.00,521.00
             959.00,521.00 961.00,513.33 961.00,513.33
             961.00,513.33 962.00,504.67 962.00,504.67
             962.62,498.14 967.73,484.84 961.33,480.33
             957.99,477.98 954.13,478.45 950.33,479.00
             938.43,480.74 929.17,485.76 921.67,495.00
             917.39,500.27 916.67,505.33 917.67,508.67 Z
           M 1218.00,577.00
           C 1217.64,591.58 1202.41,609.83 1187.00,608.96
             1171.39,608.07 1169.24,580.92 1167.00,569.00
             1167.00,569.00 1164.00,569.00 1164.00,569.00
             1159.28,583.95 1142.41,601.57 1128.00,607.42
             1117.60,611.64 1105.07,608.93 1100.36,598.00
             1093.49,582.04 1096.56,566.54 1097.13,550.00
             1097.41,541.65 1094.12,544.39 1091.51,538.90
             1090.26,536.27 1090.21,531.96 1089.37,529.00
             1087.41,522.09 1081.69,510.93 1082.56,504.00
             1083.54,496.13 1093.53,491.69 1097.04,496.31
             1099.78,499.86 1096.59,503.08 1097.04,510.00
             1097.04,510.00 1107.04,503.27 1107.04,503.27
             1110.91,501.73 1112.54,503.70 1115.83,501.44
             1115.83,501.44 1125.46,491.35 1125.46,491.35
             1134.43,482.91 1145.36,476.15 1158.00,476.00
             1161.32,475.96 1166.92,475.82 1170.00,476.53
             1177.72,478.30 1190.42,486.56 1193.26,494.00
             1194.13,496.28 1194.00,499.55 1193.91,502.00
             1193.91,502.00 1193.91,516.00 1193.91,516.00
             1192.95,524.23 1191.02,524.78 1191.00,536.00
             1191.00,536.00 1191.00,569.00 1191.00,569.00
             1191.06,574.12 1193.23,588.09 1199.05,589.66
             1201.77,590.40 1204.24,587.66 1206.00,585.98
             1210.32,581.86 1211.98,578.34 1218.00,577.00 Z
           M 612.00,478.00
           C 574.49,487.06 558.42,523.43 558.00,559.00
             557.92,565.80 558.00,574.39 559.53,581.00
             563.15,596.72 575.44,608.80 592.00,609.00
             592.00,609.00 601.00,609.00 601.00,609.00
             631.99,608.95 648.49,582.26 655.33,555.00
             657.43,546.63 658.65,542.91 658.67,534.00
             658.67,534.00 658.67,523.33 658.67,523.33
             658.42,502.38 648.95,477.04 626.00,477.00
             621.97,476.72 615.99,477.67 612.00,478.00 Z
           M 670.67,506.67
           C 675.75,503.89 674.04,502.87 678.33,499.00
             679.82,497.66 687.15,492.85 689.33,493.33
             692.57,494.05 692.30,501.81 692.33,504.33
             692.33,504.33 691.33,523.00 691.33,523.00
             691.33,523.00 690.00,538.33 690.00,538.33
             690.00,538.33 689.67,547.33 689.67,547.33
             689.67,547.33 689.00,559.00 689.00,559.00
             689.00,559.00 688.00,592.67 688.00,592.67
             688.65,597.15 690.64,600.77 693.33,604.67
             696.91,609.83 700.14,608.60 706.00,608.67
             723.99,608.88 738.80,599.22 751.00,586.00
             764.20,571.69 771.88,554.18 776.33,535.33
             776.33,535.33 778.00,525.67 778.00,525.67
             779.17,519.17 780.92,511.87 781.00,505.33
             781.00,505.33 782.17,486.00 782.17,486.00
             781.95,483.80 782.22,480.23 780.98,478.43
             777.89,473.93 768.44,476.11 765.13,479.23
             760.29,483.78 760.01,490.80 760.00,497.00
             760.00,497.00 760.82,522.00 760.82,522.00
             760.82,522.00 759.28,538.00 759.28,538.00
             757.61,551.61 756.61,560.81 749.10,573.00
             749.10,573.00 744.32,580.00 744.32,580.00
             737.84,588.35 721.25,604.85 712.67,591.67
             711.39,589.71 709.84,586.58 709.33,584.33
             708.49,580.57 707.34,579.11 707.33,575.33
             707.33,575.33 706.00,554.33 706.00,554.33
             706.00,554.33 707.00,545.67 707.00,545.67
             707.00,545.67 707.67,532.67 707.67,532.67
             707.67,532.67 709.67,509.33 709.67,509.33
             709.77,500.89 712.54,488.82 705.33,483.00
             699.09,477.96 693.45,479.65 686.67,482.67
             677.75,486.64 669.70,494.62 668.67,504.67
             668.40,507.24 670.23,504.17 670.67,506.67 Z
           M 793.00,512.00
           C 798.94,503.13 805.13,497.91 813.00,491.00
             813.00,491.00 814.79,498.00 814.79,498.00
             814.79,498.00 813.56,524.00 813.56,524.00
             813.56,524.00 811.46,534.00 811.46,534.00
             808.97,547.81 805.16,572.39 805.00,586.00
             804.93,592.47 804.83,602.04 810.14,606.61
             814.91,610.85 823.83,608.91 829.00,606.61
             840.85,601.05 854.22,591.08 855.00,577.00
             847.08,578.28 844.44,584.80 838.00,589.04
             833.20,592.21 830.45,590.37 829.17,585.00
             829.17,585.00 829.17,580.00 829.17,580.00
             828.70,554.63 836.04,527.38 839.28,502.00
             839.28,502.00 840.96,490.00 840.96,490.00
             841.35,479.79 838.41,475.58 828.00,476.04
             816.58,476.54 802.34,486.38 795.37,495.00
             791.70,499.55 786.07,507.98 793.00,512.00 Z
           M 612.00,489.45
           C 630.90,490.16 634.48,503.11 637.08,519.00
             637.08,519.00 638.70,534.00 638.70,534.00
             638.70,534.00 637.27,553.00 637.27,553.00
             637.27,553.00 635.47,566.00 635.47,566.00
             631.57,582.99 622.99,596.42 604.00,595.99
             584.86,595.54 581.19,577.72 581.00,562.00
             581.00,562.00 580.03,550.00 580.03,550.00
             580.03,550.00 580.96,540.00 580.96,540.00
             581.66,523.92 584.29,499.05 601.00,491.41
             604.21,489.95 608.48,489.75 612.00,489.45 Z
           M 1148.00,490.59
           C 1120.06,497.11 1117.42,533.49 1116.09,557.00
             1115.88,560.78 1116.59,563.35 1116.93,567.00
             1117.90,577.54 1119.40,591.44 1134.00,588.52
             1146.45,586.03 1163.61,565.81 1167.20,554.00
             1167.20,554.00 1171.24,529.00 1171.24,529.00
             1171.24,529.00 1175.03,516.00 1175.03,516.00
             1176.18,513.09 1178.10,510.30 1177.48,507.00
             1176.28,500.64 1164.06,492.27 1158.00,490.59
             1154.41,489.78 1151.60,489.97 1148.00,490.59 Z
           M 1438.00,490.63
           C 1424.35,495.66 1418.06,505.52 1414.26,519.00
             1413.38,522.09 1411.02,527.56 1413.03,530.49
             1414.41,532.52 1419.63,533.98 1422.00,534.29
             1429.96,536.19 1440.19,536.59 1448.00,534.29
             1469.80,527.14 1468.57,499.00 1457.00,491.74
             1452.93,489.19 1442.68,489.70 1438.00,490.63 Z
           M 1097.04,808.45
           C 1100.83,808.07 1103.79,808.62 1106.57,811.53
             1108.82,813.90 1109.60,818.00 1105.85,819.31
             1100.66,821.14 1085.81,813.32 1097.04,808.45 Z" />
</svg>